{"asset":{"version":"2.0","generator":"THREE.GLTFExporter"},"scenes":[{"name":"default","nodes":[0]}],"scene":0,"nodes":[{"name":"default","mesh":0}],"bufferViews":[{"buffer":0,"byteOffset":0,"byteLength":19296,"target":34962,"byteStride":12},{"buffer":0,"byteOffset":19296,"byteLength":19296,"target":34962,"byteStride":12},{"buffer":0,"byteOffset":38592,"byteLength":12864,"target":34962,"byteStride":8},{"buffer":0,"byteOffset":51456,"byteLength":3216,"target":34963}],"buffers":[{"byteLength":54672,"uri":"data:application/octet-stream;base64,"}],"accessors":[{"bufferView":0,"componentType":5126,"count":1608,"max":[7,4.003999710083008,10.009247779846191],"min":[-5,-2,-13.000249862670898],"type":"VEC3"},{"bufferView":1,"componentType":5126,"count":1608,"max":[1,1,1],"min":[-1,-0.0029495018534362316,-1],"type":"VEC3"},{"bufferView":2,"componentType":5126,"count":1608,"max":[1,1],"min":[0,0],"type":"VEC2"},{"bufferView":3,"componentType":5123,"count":1608,"max":[1607],"min":[0],"type":"SCALAR"}],"materials":[{"pbrMetallicRoughness":{"metallicFactor":0,"roughnessFactor":1,"baseColorTexture":{"index":0}},"alphaMode":"MASK","alphaCutoff":0.01,"name":"texture_quake_tileset"}],"textures":[{"sampler":0,"source":0,"name":"texture_quake_tileset"}],"samplers":[{"magFilter":9728,"minFilter":9728,"wrapS":33071,"wrapT":33071}],"images":[{"mimeType":"image/png","uri":"data:image/png;base64,"}],"meshes":[{"primitives":[{"mode":4,"attributes":{"POSITION":0,"NORMAL":1,"TEXCOORD_0":2},"indices":3,"material":0}]}]}